<?xml version="1.0" standalone="no"?>
<!DOCTYPE svg PUBLIC "-//W3C//DTD SVG 20010904//EN"
 "http://www.w3.org/TR/2001/REC-SVG-20010904/DTD/svg10.dtd">
<svg version="1.0" xmlns="http://www.w3.org/2000/svg"
 width="290.000000pt" height="378.000000pt" viewBox="0 0 290.000000 378.000000"
 preserveAspectRatio="xMidYMid meet">

<g transform="translate(0.000000,378.000000) scale(0.100000,-0.100000)"
fill="#000000" stroke="none">
<path d="M741 3754 l-31 -26 0 -1794 0 -1794 -328 0 -329 0 -21 -23 c-28 -30
-28 -68 1 -95 l23 -22 720 0 721 0 21 23 c28 30 28 68 -1 95 -23 22 -28 22
-345 22 l-322 0 1 1438 0 1437 285 308 285 307 565 0 564 0 0 -155 0 -155 -27
-6 c-120 -26 -200 -106 -224 -226 -29 -144 71 -303 203 -325 l38 -6 0 -442 0
-442 166 -182 c154 -167 194 -202 194 -168 0 6 -74 93 -165 192 l-165 180 2
430 3 430 35 5 c88 15 174 90 204 177 54 159 -27 324 -182 369 l-53 16 3 163
c3 138 6 166 21 182 25 29 22 68 -9 92 -27 21 -31 21 -925 21 l-897 0 -31 -26z
m318 -311 c-95 -104 -181 -197 -191 -208 -17 -19 -18 -14 -18 188 l0 207 191
0 191 0 -173 -187z m1596 -182 c97 -44 159 -165 137 -270 -44 -210 -292 -270
-417 -101 -31 42 -45 90 -45 153 0 166 177 286 325 218z"/>
<path d="M2430 3160 c-11 -11 -20 -24 -20 -29 0 -16 30 -41 48 -41 42 1 60 42
32 70 -25 25 -35 25 -60 0z"/>
<path d="M2628 3169 c-22 -12 -23 -52 -3 -69 21 -17 62 -4 71 22 5 16 1 27
-16 40 -25 21 -29 21 -52 7z"/>
<path d="M2394 2999 c-7 -13 59 -84 98 -105 32 -17 91 -18 121 -3 56 28 117
76 117 92 0 24 -8 22 -63 -17 -99 -71 -132 -71 -206 -1 -52 48 -56 51 -67 34z"/>
</g>
</svg>
