<?xml version="1.0" standalone="no"?>
<!DOCTYPE svg PUBLIC "-//W3C//DTD SVG 20010904//EN"
 "http://www.w3.org/TR/2001/REC-SVG-20010904/DTD/svg10.dtd">
<svg version="1.0" xmlns="http://www.w3.org/2000/svg"
 width="263.000000pt" height="378.000000pt" viewBox="0 0 263.000000 378.000000"
 preserveAspectRatio="xMidYMid meet">

<g transform="translate(0.000000,378.000000) scale(0.100000,-0.100000)"
fill="#000000" stroke="none">
<path d="M741 3754 l-31 -26 0 -1794 0 -1794 -328 0 -329 0 -21 -23 c-28 -30
-28 -68 1 -95 l23 -22 720 0 721 0 21 23 c28 30 28 68 -1 95 -23 22 -28 22
-345 22 l-322 0 1 1438 0 1437 285 308 285 307 565 0 564 0 0 -160 c0 -132 2
-160 14 -160 12 0 15 30 18 169 3 144 6 172 21 188 25 29 22 68 -9 92 -27 21
-31 21 -925 21 l-897 0 -31 -26z m318 -311 c-95 -104 -181 -197 -191 -208 -17
-19 -18 -14 -18 188 l0 207 191 0 191 0 -173 -187z"/>
</g>
</svg>
