<?xml version="1.0" standalone="no"?>
<!DOCTYPE svg PUBLIC "-//W3C//DTD SVG 20010904//EN"
 "http://www.w3.org/TR/2001/REC-SVG-20010904/DTD/svg10.dtd">
<svg version="1.0" xmlns="http://www.w3.org/2000/svg"
 width="290.000000pt" height="378.000000pt" viewBox="0 0 290.000000 378.000000"
 preserveAspectRatio="xMidYMid meet">

<g transform="translate(0.000000,378.000000) scale(0.100000,-0.100000)"
fill="#000000" stroke="none">
<path d="M741 3754 l-31 -26 0 -1794 0 -1794 -328 0 -329 0 -21 -23 c-28 -30
-28 -68 1 -95 l23 -22 720 0 721 0 21 23 c28 30 28 68 -1 95 -23 22 -28 22
-345 22 l-322 0 1 1438 0 1437 285 308 285 307 565 0 564 0 0 -144 0 -144 -50
-12 c-96 -23 -176 -100 -201 -194 -16 -57 -6 -163 19 -212 37 -74 134 -144
197 -144 l25 0 0 -172 0 -172 -31 30 c-17 16 -85 89 -152 162 -113 123 -136
141 -144 116 -2 -6 71 -91 162 -189 l165 -179 0 -241 0 -240 -165 -180 c-91
-99 -165 -186 -165 -192 0 -33 39 0 181 156 85 93 159 169 164 169 6 0 79 -76
164 -169 142 -156 181 -189 181 -156 0 6 -74 93 -165 192 l-165 180 0 240 0
241 165 179 c152 164 178 200 147 200 -6 0 -78 -72 -159 -160 l-148 -159 -3
159 c-1 88 -1 164 2 171 2 6 22 14 43 17 21 4 60 20 85 37 126 83 161 258 80
390 -29 47 -106 106 -151 116 -14 3 -32 8 -39 10 -11 3 -13 37 -10 158 2 130
6 157 21 173 25 29 22 68 -9 92 -27 21 -31 21 -925 21 l-897 0 -31 -26z m318
-311 c-95 -104 -181 -197 -191 -208 -17 -19 -18 -14 -18 188 l0 207 191 0 191
0 -173 -187z m1617 -179 c129 -79 153 -260 51 -371 -98 -107 -229 -111 -329
-12 -124 124 -87 333 72 404 56 25 147 16 206 -21z"/>
<path d="M2390 3188 c0 -6 7 -19 15 -28 14 -15 14 -18 0 -30 -8 -7 -15 -19
-15 -26 0 -17 22 -18 38 -2 9 9 17 8 37 -2 32 -17 42 -7 25 25 -11 21 -11 27
3 43 10 10 17 22 17 25 0 13 -38 7 -50 -8 -12 -14 -15 -14 -30 0 -20 18 -40
20 -40 3z"/>
<path d="M2600 3188 c0 -6 7 -19 15 -28 14 -15 14 -18 0 -30 -8 -7 -15 -19
-15 -26 0 -17 22 -18 38 -2 9 9 17 8 37 -2 32 -17 42 -7 25 25 -11 21 -11 27
3 43 10 10 17 22 17 25 0 13 -38 7 -50 -8 -12 -14 -15 -14 -30 0 -20 18 -40
20 -40 3z"/>
<path d="M2405 2990 c-14 -22 10 -30 89 -30 79 0 83 -1 94 -25 23 -50 107 -22
100 34 l-3 26 -137 3 c-86 2 -139 -1 -143 -8z m240 -40 c-3 -5 -10 -10 -16
-10 -5 0 -9 5 -9 10 0 6 7 10 16 10 8 0 12 -4 9 -10z"/>
</g>
</svg>
