<svg id="visual" viewBox="0 0 900 600" width="900" height="600" xmlns="http://www.w3.org/2000/svg" xmlns:xlink="http://www.w3.org/1999/xlink" version="1.1"><g stroke-width="1" stroke-linejoin="bevel"><path d="M466 304.9L526 312.9L478 290.1Z" fill="#6d026e" stroke="#6d026e"></path><path d="M526 312.9L551 240.1L478 290.1Z" fill="#89028b" stroke="#89028b"></path><path d="M434 422.6L558 389.6L526 312.9Z" fill="#d501d8" stroke="#d501d8"></path><path d="M526 312.9L612 264.1L551 240.1Z" fill="#89028b" stroke="#89028b"></path><path d="M551 240.1L482 209.4L478 290.1Z" fill="#d501d8" stroke="#d501d8"></path><path d="M478 290.1L363 274.1L466 304.9Z" fill="#6d026e" stroke="#6d026e"></path><path d="M325 361.9L434 422.6L466 304.9Z" fill="#6d026e" stroke="#6d026e"></path><path d="M466 304.9L434 422.6L526 312.9Z" fill="#e501e8" stroke="#e501e8"></path><path d="M619 359.9L612 264.1L526 312.9Z" fill="#a702a9" stroke="#a702a9"></path><path d="M551 240.1L538 145.4L482 209.4Z" fill="#e501e8" stroke="#e501e8"></path><path d="M558 389.6L619 359.9L526 312.9Z" fill="#89028b" stroke="#89028b"></path><path d="M482 209.4L363 274.1L478 290.1Z" fill="#98029a" stroke="#98029a"></path><path d="M363 274.1L325 361.9L466 304.9Z" fill="#98029a" stroke="#98029a"></path><path d="M611 173.4L538 145.4L551 240.1Z" fill="#e501e8" stroke="#e501e8"></path><path d="M482 209.4L391 164.4L363 274.1Z" fill="#7b027c" stroke="#7b027c"></path><path d="M325 361.9L342 412.6L434 422.6Z" fill="#6d026e" stroke="#6d026e"></path><path d="M612 264.1L611 173.4L551 240.1Z" fill="#7b027c" stroke="#7b027c"></path><path d="M698 236.1L611 173.4L612 264.1Z" fill="#5f0260" stroke="#5f0260"></path><path d="M425 92.7L391 164.4L482 209.4Z" fill="#f500f8" stroke="#f500f8"></path><path d="M248 233.1L248 375.9L325 361.9Z" fill="#c602c8" stroke="#c602c8"></path><path d="M661 427.6L684 345.9L619 359.9Z" fill="#f500f8" stroke="#f500f8"></path><path d="M619 359.9L684 345.9L612 264.1Z" fill="#b602b8" stroke="#b602b8"></path><path d="M627 503.3L661 427.6L558 389.6Z" fill="#89028b" stroke="#89028b"></path><path d="M558 389.6L661 427.6L619 359.9Z" fill="#d501d8" stroke="#d501d8"></path><path d="M434 422.6L549 513.3L558 389.6Z" fill="#98029a" stroke="#98029a"></path><path d="M464 541.3L549 513.3L434 422.6Z" fill="#a702a9" stroke="#a702a9"></path><path d="M342 412.6L383 503.3L434 422.6Z" fill="#6d026e" stroke="#6d026e"></path><path d="M684 345.9L698 236.1L612 264.1Z" fill="#d501d8" stroke="#d501d8"></path><path d="M383 503.3L464 541.3L434 422.6Z" fill="#b602b8" stroke="#b602b8"></path><path d="M605 600L627 503.3L549 513.3Z" fill="#7b027c" stroke="#7b027c"></path><path d="M549 513.3L627 503.3L558 389.6Z" fill="#a702a9" stroke="#a702a9"></path><path d="M538 145.4L425 92.7L482 209.4Z" fill="#d501d8" stroke="#d501d8"></path><path d="M526 55.7L425 92.7L538 145.4Z" fill="#d501d8" stroke="#d501d8"></path><path d="M661 427.6L738 389.6L684 345.9Z" fill="#a702a9" stroke="#a702a9"></path><path d="M831 314.9L794 218.1L698 236.1Z" fill="#c602c8" stroke="#c602c8"></path><path d="M693 496.3L738 389.6L661 427.6Z" fill="#98029a" stroke="#98029a"></path><path d="M325 361.9L248 375.9L342 412.6Z" fill="#5f0260" stroke="#5f0260"></path><path d="M342 412.6L299 529.3L383 503.3Z" fill="#e501e8" stroke="#e501e8"></path><path d="M248 233.1L325 361.9L363 274.1Z" fill="#d501d8" stroke="#d501d8"></path><path d="M248 233.1L363 274.1L391 164.4Z" fill="#5f0260" stroke="#5f0260"></path><path d="M245 136.4L248 233.1L391 164.4Z" fill="#b602b8" stroke="#b602b8"></path><path d="M650 68.7L538 145.4L611 173.4Z" fill="#c602c8" stroke="#c602c8"></path><path d="M650 68.7L526 55.7L538 145.4Z" fill="#b602b8" stroke="#b602b8"></path><path d="M685 600L693 496.3L627 503.3Z" fill="#6d026e" stroke="#6d026e"></path><path d="M627 503.3L693 496.3L661 427.6Z" fill="#6d026e" stroke="#6d026e"></path><path d="M794 218.1L717 164.4L698 236.1Z" fill="#d501d8" stroke="#d501d8"></path><path d="M698 236.1L717 164.4L611 173.4Z" fill="#7b027c" stroke="#7b027c"></path><path d="M289 78.7L344 93.7L340 0Z" fill="#89028b" stroke="#89028b"></path><path d="M425 92.7L344 93.7L391 164.4Z" fill="#5f0260" stroke="#5f0260"></path><path d="M181 415.6L245 421.6L248 375.9Z" fill="#5f0260" stroke="#5f0260"></path><path d="M248 375.9L245 421.6L342 412.6Z" fill="#5f0260" stroke="#5f0260"></path><path d="M432 600L535 600L464 541.3Z" fill="#f500f8" stroke="#f500f8"></path><path d="M464 541.3L535 600L549 513.3Z" fill="#5f0260" stroke="#5f0260"></path><path d="M432 600L464 541.3L383 503.3Z" fill="#f500f8" stroke="#f500f8"></path><path d="M245 421.6L299 529.3L342 412.6Z" fill="#f500f8" stroke="#f500f8"></path><path d="M363 600L432 600L383 503.3Z" fill="#b602b8" stroke="#b602b8"></path><path d="M717 164.4L650 68.7L611 173.4Z" fill="#7b027c" stroke="#7b027c"></path><path d="M185 254.1L192 304.9L248 233.1Z" fill="#98029a" stroke="#98029a"></path><path d="M248 233.1L192 304.9L248 375.9Z" fill="#c602c8" stroke="#c602c8"></path><path d="M535 600L605 600L549 513.3Z" fill="#d501d8" stroke="#d501d8"></path><path d="M344 93.7L245 136.4L391 164.4Z" fill="#e501e8" stroke="#e501e8"></path><path d="M299 529.3L363 600L383 503.3Z" fill="#f500f8" stroke="#f500f8"></path><path d="M340 0L344 93.7L425 92.7Z" fill="#6d026e" stroke="#6d026e"></path><path d="M344 93.7L289 78.7L245 136.4Z" fill="#f500f8" stroke="#f500f8"></path><path d="M831 314.9L698 236.1L684 345.9Z" fill="#c602c8" stroke="#c602c8"></path><path d="M717 164.4L757 47.7L650 68.7Z" fill="#f500f8" stroke="#f500f8"></path><path d="M161 191.4L185 254.1L248 233.1Z" fill="#6d026e" stroke="#6d026e"></path><path d="M519 0L478 0L526 55.7Z" fill="#e501e8" stroke="#e501e8"></path><path d="M526 55.7L478 0L425 92.7Z" fill="#a702a9" stroke="#a702a9"></path><path d="M608 0L519 0L526 55.7Z" fill="#89028b" stroke="#89028b"></path><path d="M693 496.3L803 417.6L738 389.6Z" fill="#e501e8" stroke="#e501e8"></path><path d="M738 389.6L831 314.9L684 345.9Z" fill="#7b027c" stroke="#7b027c"></path><path d="M804 534.3L803 417.6L693 496.3Z" fill="#a702a9" stroke="#a702a9"></path><path d="M192 304.9L181 415.6L248 375.9Z" fill="#6d026e" stroke="#6d026e"></path><path d="M245 421.6L147 485.3L299 529.3Z" fill="#89028b" stroke="#89028b"></path><path d="M299 529.3L242 600L363 600Z" fill="#98029a" stroke="#98029a"></path><path d="M147 485.3L181 415.6L57 436.6Z" fill="#98029a" stroke="#98029a"></path><path d="M680 0L608 0L650 68.7Z" fill="#6d026e" stroke="#6d026e"></path><path d="M650 68.7L608 0L526 55.7Z" fill="#f500f8" stroke="#f500f8"></path><path d="M803 417.6L831 314.9L738 389.6Z" fill="#c602c8" stroke="#c602c8"></path><path d="M605 600L685 600L627 503.3Z" fill="#89028b" stroke="#89028b"></path><path d="M199 107.7L161 191.4L245 136.4Z" fill="#d501d8" stroke="#d501d8"></path><path d="M478 0L340 0L425 92.7Z" fill="#a702a9" stroke="#a702a9"></path><path d="M835 166.4L791 119.7L794 218.1Z" fill="#d501d8" stroke="#d501d8"></path><path d="M794 218.1L791 119.7L717 164.4Z" fill="#6d026e" stroke="#6d026e"></path><path d="M245 136.4L161 191.4L248 233.1Z" fill="#b602b8" stroke="#b602b8"></path><path d="M89 236.1L94 366.9L192 304.9Z" fill="#89028b" stroke="#89028b"></path><path d="M199 107.7L245 136.4L289 78.7Z" fill="#c602c8" stroke="#c602c8"></path><path d="M232 0L199 107.7L289 78.7Z" fill="#b602b8" stroke="#b602b8"></path><path d="M757 47.7L680 0L650 68.7Z" fill="#b602b8" stroke="#b602b8"></path><path d="M900 251.1L835 166.4L794 218.1Z" fill="#5f0260" stroke="#5f0260"></path><path d="M791 119.7L757 47.7L717 164.4Z" fill="#b602b8" stroke="#b602b8"></path><path d="M847 0L757 47.7L791 119.7Z" fill="#98029a" stroke="#98029a"></path><path d="M685 600L804 534.3L693 496.3Z" fill="#a702a9" stroke="#a702a9"></path><path d="M900 404.6L900 318.9L831 314.9Z" fill="#e501e8" stroke="#e501e8"></path><path d="M147 485.3L242 600L299 529.3Z" fill="#6d026e" stroke="#6d026e"></path><path d="M94 366.9L181 415.6L192 304.9Z" fill="#7b027c" stroke="#7b027c"></path><path d="M181 415.6L147 485.3L245 421.6Z" fill="#f500f8" stroke="#f500f8"></path><path d="M89 236.1L192 304.9L185 254.1Z" fill="#e501e8" stroke="#e501e8"></path><path d="M900 404.6L831 314.9L803 417.6Z" fill="#e501e8" stroke="#e501e8"></path><path d="M831 314.9L900 251.1L794 218.1Z" fill="#7b027c" stroke="#7b027c"></path><path d="M900 318.9L900 251.1L831 314.9Z" fill="#98029a" stroke="#98029a"></path><path d="M835 166.4L900 134.4L791 119.7Z" fill="#c602c8" stroke="#c602c8"></path><path d="M340 0L232 0L289 78.7Z" fill="#b602b8" stroke="#b602b8"></path><path d="M73 183.4L89 236.1L161 191.4Z" fill="#89028b" stroke="#89028b"></path><path d="M161 191.4L89 236.1L185 254.1Z" fill="#e501e8" stroke="#e501e8"></path><path d="M73 183.4L161 191.4L199 107.7Z" fill="#6d026e" stroke="#6d026e"></path><path d="M900 486.3L900 404.6L803 417.6Z" fill="#f500f8" stroke="#f500f8"></path><path d="M57 436.6L119 500.3L147 485.3Z" fill="#5f0260" stroke="#5f0260"></path><path d="M147 485.3L183 600L242 600Z" fill="#7b027c" stroke="#7b027c"></path><path d="M119 500.3L183 600L147 485.3Z" fill="#b602b8" stroke="#b602b8"></path><path d="M804 534.3L900 486.3L803 417.6Z" fill="#f500f8" stroke="#f500f8"></path><path d="M900 600L900 486.3L804 534.3Z" fill="#e501e8" stroke="#e501e8"></path><path d="M685 600L832 600L804 534.3Z" fill="#5f0260" stroke="#5f0260"></path><path d="M232 0L187 0L199 107.7Z" fill="#a702a9" stroke="#a702a9"></path><path d="M61 68.7L73 183.4L199 107.7Z" fill="#5f0260" stroke="#5f0260"></path><path d="M0 317.9L57 436.6L94 366.9Z" fill="#c602c8" stroke="#c602c8"></path><path d="M900 251.1L900 134.4L835 166.4Z" fill="#c602c8" stroke="#c602c8"></path><path d="M757 47.7L847 0L680 0Z" fill="#f500f8" stroke="#f500f8"></path><path d="M94 366.9L57 436.6L181 415.6Z" fill="#b602b8" stroke="#b602b8"></path><path d="M119 500.3L52 600L183 600Z" fill="#d501d8" stroke="#d501d8"></path><path d="M0 317.9L94 366.9L89 236.1Z" fill="#98029a" stroke="#98029a"></path><path d="M900 64.7L847 0L791 119.7Z" fill="#98029a" stroke="#98029a"></path><path d="M900 134.4L900 64.7L791 119.7Z" fill="#98029a" stroke="#98029a"></path><path d="M832 600L900 600L804 534.3Z" fill="#e501e8" stroke="#e501e8"></path><path d="M0 269.1L0 317.9L89 236.1Z" fill="#98029a" stroke="#98029a"></path><path d="M0 179.4L89 236.1L73 183.4Z" fill="#c602c8" stroke="#c602c8"></path><path d="M0 179.4L0 269.1L89 236.1Z" fill="#5f0260" stroke="#5f0260"></path><path d="M187 0L61 68.7L199 107.7Z" fill="#f500f8" stroke="#f500f8"></path><path d="M0 84.7L0 179.4L73 183.4Z" fill="#98029a" stroke="#98029a"></path><path d="M0 317.9L0 453.6L57 436.6Z" fill="#6d026e" stroke="#6d026e"></path><path d="M57 436.6L0 489.3L119 500.3Z" fill="#f500f8" stroke="#f500f8"></path><path d="M900 64.7L900 0L847 0Z" fill="#89028b" stroke="#89028b"></path><path d="M0 453.6L0 489.3L57 436.6Z" fill="#a702a9" stroke="#a702a9"></path><path d="M0 489.3L52 600L119 500.3Z" fill="#a702a9" stroke="#a702a9"></path><path d="M187 0L68 0L61 68.7Z" fill="#7b027c" stroke="#7b027c"></path><path d="M61 68.7L0 84.7L73 183.4Z" fill="#c602c8" stroke="#c602c8"></path><path d="M0 0L0 84.7L61 68.7Z" fill="#6d026e" stroke="#6d026e"></path><path d="M0 489.3L0 600L52 600Z" fill="#c602c8" stroke="#c602c8"></path><path d="M68 0L0 0L61 68.7Z" fill="#f500f8" stroke="#f500f8"></path></g></svg>