<svg id="visual" viewBox="0 0 900 600" width="900" height="600" xmlns="http://www.w3.org/2000/svg" xmlns:xlink="http://www.w3.org/1999/xlink" version="1.1"><rect x="0" y="0" width="900" height="600" fill="#20ded0"></rect><path d="M0 383L21.5 392C43 401 86 419 128.8 415.5C171.7 412 214.3 387 257.2 374.5C300 362 343 362 385.8 366.3C428.7 370.7 471.3 379.3 514.2 389.7C557 400 600 412 642.8 418.3C685.7 424.7 728.3 425.3 771.2 426.3C814 427.3 857 428.7 878.5 429.3L900 430L900 601L878.5 601C857 601 814 601 771.2 601C728.3 601 685.7 601 642.8 601C600 601 557 601 514.2 601C471.3 601 428.7 601 385.8 601C343 601 300 601 257.2 601C214.3 601 171.7 601 128.8 601C86 601 43 601 21.5 601L0 601Z" fill="#fa7268"></path><path d="M0 464L21.5 458C43 452 86 440 128.8 431.2C171.7 422.3 214.3 416.7 257.2 415.7C300 414.7 343 418.3 385.8 428.3C428.7 438.3 471.3 454.7 514.2 452.3C557 450 600 429 642.8 418.2C685.7 407.3 728.3 406.7 771.2 405.8C814 405 857 404 878.5 403.5L900 403L900 601L878.5 601C857 601 814 601 771.2 601C728.3 601 685.7 601 642.8 601C600 601 557 601 514.2 601C471.3 601 428.7 601 385.8 601C343 601 300 601 257.2 601C214.3 601 171.7 601 128.8 601C86 601 43 601 21.5 601L0 601Z" fill="#ef5f67"></path><path d="M0 457L21.5 457.5C43 458 86 459 128.8 462.8C171.7 466.7 214.3 473.3 257.2 471.7C300 470 343 460 385.8 457C428.7 454 471.3 458 514.2 461.8C557 465.7 600 469.3 642.8 470C685.7 470.7 728.3 468.3 771.2 470C814 471.7 857 477.3 878.5 480.2L900 483L900 601L878.5 601C857 601 814 601 771.2 601C728.3 601 685.7 601 642.8 601C600 601 557 601 514.2 601C471.3 601 428.7 601 385.8 601C343 601 300 601 257.2 601C214.3 601 171.7 601 128.8 601C86 601 43 601 21.5 601L0 601Z" fill="#e34c67"></path><path d="M0 537L21.5 533.7C43 530.3 86 523.7 128.8 518.8C171.7 514 214.3 511 257.2 507.8C300 504.7 343 501.3 385.8 503.5C428.7 505.7 471.3 513.3 514.2 511.3C557 509.3 600 497.7 642.8 494.7C685.7 491.7 728.3 497.3 771.2 498.2C814 499 857 495 878.5 493L900 491L900 601L878.5 601C857 601 814 601 771.2 601C728.3 601 685.7 601 642.8 601C600 601 557 601 514.2 601C471.3 601 428.7 601 385.8 601C343 601 300 601 257.2 601C214.3 601 171.7 601 128.8 601C86 601 43 601 21.5 601L0 601Z" fill="#d53867"></path><path d="M0 526L21.5 533.8C43 541.7 86 557.3 128.8 563.5C171.7 569.7 214.3 566.3 257.2 565.7C300 565 343 567 385.8 562.2C428.7 557.3 471.3 545.7 514.2 540C557 534.3 600 534.7 642.8 535.7C685.7 536.7 728.3 538.3 771.2 544C814 549.7 857 559.3 878.5 564.2L900 569L900 601L878.5 601C857 601 814 601 771.2 601C728.3 601 685.7 601 642.8 601C600 601 557 601 514.2 601C471.3 601 428.7 601 385.8 601C343 601 300 601 257.2 601C214.3 601 171.7 601 128.8 601C86 601 43 601 21.5 601L0 601Z" fill="#c62368"></path></svg>