<svg id="visual" viewBox="0 0 900 600" width="900" height="600" xmlns="http://www.w3.org/2000/svg" xmlns:xlink="http://www.w3.org/1999/xlink" version="1.1"><g stroke-width="1" stroke-linejoin="bevel"><path d="M460 277.7L484.3 317.3L500.3 269.7Z" fill="#116798" stroke="#116798"></path><path d="M500.3 269.7L503.3 240.2L460 277.7Z" fill="#072f48" stroke="#072f48"></path><path d="M426 340.3L484.3 358.8L484.3 317.3Z" fill="#0e96d9" stroke="#0e96d9"></path><path d="M484.3 317.3L553.5 327.3L500.3 269.7Z" fill="#0d4a6f" stroke="#0d4a6f"></path><path d="M503.3 240.2L471 220.2L460 277.7Z" fill="#0e96d9" stroke="#0e96d9"></path><path d="M399.8 306.3L426 340.3L460 277.7Z" fill="#116798" stroke="#116798"></path><path d="M460 277.7L426 340.3L484.3 317.3Z" fill="#0e96d9" stroke="#0e96d9"></path><path d="M484.3 358.8L553.5 327.3L484.3 317.3Z" fill="#0e96d9" stroke="#0e96d9"></path><path d="M500.3 269.7L575.5 255.7L503.3 240.2Z" fill="#0d4a6f" stroke="#0d4a6f"></path><path d="M378.8 267.7L399.8 306.3L460 277.7Z" fill="#072f48" stroke="#072f48"></path><path d="M553.5 327.3L575.5 255.7L500.3 269.7Z" fill="#021625" stroke="#021625"></path><path d="M503.3 240.2L494.3 185.6L471 220.2Z" fill="#052236" stroke="#052236"></path><path d="M380.8 406.8L425 374.8L426 340.3Z" fill="#116798" stroke="#116798"></path><path d="M426 340.3L425 374.8L484.3 358.8Z" fill="#0e96d9" stroke="#0e96d9"></path><path d="M537.5 187.6L494.3 185.6L503.3 240.2Z" fill="#1086c3" stroke="#1086c3"></path><path d="M399.8 196.2L378.8 267.7L460 277.7Z" fill="#0f5883" stroke="#0f5883"></path><path d="M399.8 196.2L460 277.7L471 220.2Z" fill="#08a6f0" stroke="#08a6f0"></path><path d="M399.8 306.3L380.8 406.8L426 340.3Z" fill="#072f48" stroke="#072f48"></path><path d="M575.5 255.7L537.5 187.6L503.3 240.2Z" fill="#072f48" stroke="#072f48"></path><path d="M430 173.6L399.8 196.2L471 220.2Z" fill="#08a6f0" stroke="#08a6f0"></path><path d="M575.5 255.7L579.5 205.2L537.5 187.6Z" fill="#0e96d9" stroke="#0e96d9"></path><path d="M493.3 125.1L430 173.6L494.3 185.6Z" fill="#116798" stroke="#116798"></path><path d="M494.3 185.6L430 173.6L471 220.2Z" fill="#1176ad" stroke="#1176ad"></path><path d="M439 413.4L482.3 419.4L484.3 358.8Z" fill="#1176ad" stroke="#1176ad"></path><path d="M484.3 358.8L568.5 400.8L553.5 327.3Z" fill="#0a3c5b" stroke="#0a3c5b"></path><path d="M339.5 228.2L353.5 288.7L378.8 267.7Z" fill="#116798" stroke="#116798"></path><path d="M378.8 267.7L353.5 288.7L399.8 306.3Z" fill="#08a6f0" stroke="#08a6f0"></path><path d="M380.8 406.8L439 413.4L425 374.8Z" fill="#0e96d9" stroke="#0e96d9"></path><path d="M425 374.8L439 413.4L484.3 358.8Z" fill="#1086c3" stroke="#1086c3"></path><path d="M482.3 419.4L568.5 400.8L484.3 358.8Z" fill="#08a6f0" stroke="#08a6f0"></path><path d="M553.5 327.3L625.8 313.3L575.5 255.7Z" fill="#08a6f0" stroke="#08a6f0"></path><path d="M575.5 255.7L618.8 236.2L579.5 205.2Z" fill="#052236" stroke="#052236"></path><path d="M642.8 373.8L625.8 313.3L553.5 327.3Z" fill="#0e96d9" stroke="#0e96d9"></path><path d="M632.8 296.7L618.8 236.2L575.5 255.7Z" fill="#052236" stroke="#052236"></path><path d="M625.8 313.3L632.8 296.7L575.5 255.7Z" fill="#052236" stroke="#052236"></path><path d="M319.5 389.8L380.8 406.8L399.8 306.3Z" fill="#1176ad" stroke="#1176ad"></path><path d="M439 413.4L468 479.9L482.3 419.4Z" fill="#0e96d9" stroke="#0e96d9"></path><path d="M323.5 162.6L339.5 228.2L399.8 196.2Z" fill="#052236" stroke="#052236"></path><path d="M399.8 196.2L339.5 228.2L378.8 267.7Z" fill="#021625" stroke="#021625"></path><path d="M353.5 288.7L321.5 308.3L399.8 306.3Z" fill="#0a3c5b" stroke="#0a3c5b"></path><path d="M282.3 266.7L321.5 308.3L353.5 288.7Z" fill="#021625" stroke="#021625"></path><path d="M579.5 205.2L534.5 134.1L537.5 187.6Z" fill="#052236" stroke="#052236"></path><path d="M537.5 187.6L534.5 134.1L494.3 185.6Z" fill="#0d4a6f" stroke="#0d4a6f"></path><path d="M621.8 148.6L534.5 134.1L579.5 205.2Z" fill="#116798" stroke="#116798"></path><path d="M534.5 134.1L493.3 125.1L494.3 185.6Z" fill="#052236" stroke="#052236"></path><path d="M430 173.6L380.8 135.6L399.8 196.2Z" fill="#1176ad" stroke="#1176ad"></path><path d="M568.5 400.8L642.8 373.8L553.5 327.3Z" fill="#1176ad" stroke="#1176ad"></path><path d="M662 328.3L664 289.7L632.8 296.7Z" fill="#1086c3" stroke="#1086c3"></path><path d="M662 328.3L632.8 296.7L625.8 313.3Z" fill="#072f48" stroke="#072f48"></path><path d="M632.8 296.7L664 289.7L618.8 236.2Z" fill="#052236" stroke="#052236"></path><path d="M618.8 236.2L621.8 148.6L579.5 205.2Z" fill="#0a3c5b" stroke="#0a3c5b"></path><path d="M338.5 439.4L410.8 457.4L380.8 406.8Z" fill="#08a6f0" stroke="#08a6f0"></path><path d="M380.8 406.8L410.8 457.4L439 413.4Z" fill="#072f48" stroke="#072f48"></path><path d="M482.3 419.4L570.5 461.4L568.5 400.8Z" fill="#1176ad" stroke="#1176ad"></path><path d="M642.8 373.8L662 328.3L625.8 313.3Z" fill="#0d4a6f" stroke="#0d4a6f"></path><path d="M422 104.1L380.8 135.6L430 173.6Z" fill="#0a3c5b" stroke="#0a3c5b"></path><path d="M410.8 457.4L468 479.9L439 413.4Z" fill="#116798" stroke="#116798"></path><path d="M568.5 400.8L632.8 416.4L642.8 373.8Z" fill="#052236" stroke="#052236"></path><path d="M321.5 308.3L319.5 389.8L399.8 306.3Z" fill="#0e96d9" stroke="#0e96d9"></path><path d="M507.3 487.9L570.5 461.4L482.3 419.4Z" fill="#1086c3" stroke="#1086c3"></path><path d="M709.3 274.7L670 236.2L664 289.7Z" fill="#021625" stroke="#021625"></path><path d="M664 289.7L670 236.2L618.8 236.2Z" fill="#1086c3" stroke="#1086c3"></path><path d="M614.8 464.9L632.8 416.4L568.5 400.8Z" fill="#021625" stroke="#021625"></path><path d="M642.8 373.8L677 354.8L662 328.3Z" fill="#052236" stroke="#052236"></path><path d="M493.3 125.1L422 104.1L430 173.6Z" fill="#1086c3" stroke="#1086c3"></path><path d="M464 69.5L422 104.1L493.3 125.1Z" fill="#052236" stroke="#052236"></path><path d="M670 236.2L621.8 148.6L618.8 236.2Z" fill="#116798" stroke="#116798"></path><path d="M520.3 69.5L464 69.5L493.3 125.1Z" fill="#0d4a6f" stroke="#0d4a6f"></path><path d="M468 479.9L507.3 487.9L482.3 419.4Z" fill="#072f48" stroke="#072f48"></path><path d="M288.3 224.2L282.3 266.7L339.5 228.2Z" fill="#0a3c5b" stroke="#0a3c5b"></path><path d="M339.5 228.2L282.3 266.7L353.5 288.7Z" fill="#072f48" stroke="#072f48"></path><path d="M321.5 308.3L258.3 363.8L319.5 389.8Z" fill="#0a3c5b" stroke="#0a3c5b"></path><path d="M703.3 408.8L677 354.8L642.8 373.8Z" fill="#1176ad" stroke="#1176ad"></path><path d="M662 328.3L709.3 274.7L664 289.7Z" fill="#116798" stroke="#116798"></path><path d="M367.8 101.1L323.5 162.6L380.8 135.6Z" fill="#0d4a6f" stroke="#0d4a6f"></path><path d="M380.8 135.6L323.5 162.6L399.8 196.2Z" fill="#0f5883" stroke="#0f5883"></path><path d="M307.3 167.6L288.3 224.2L339.5 228.2Z" fill="#116798" stroke="#116798"></path><path d="M319.5 389.8L338.5 439.4L380.8 406.8Z" fill="#1176ad" stroke="#1176ad"></path><path d="M412.8 528.5L465 525.5L468 479.9Z" fill="#0d4a6f" stroke="#0d4a6f"></path><path d="M270.3 115.1L307.3 167.6L323.5 162.6Z" fill="#08a6f0" stroke="#08a6f0"></path><path d="M323.5 162.6L307.3 167.6L339.5 228.2Z" fill="#021625" stroke="#021625"></path><path d="M570.5 461.4L614.8 464.9L568.5 400.8Z" fill="#0f5883" stroke="#0f5883"></path><path d="M632.8 416.4L703.3 408.8L642.8 373.8Z" fill="#0e96d9" stroke="#0e96d9"></path><path d="M569.5 517.9L614.8 464.9L570.5 461.4Z" fill="#116798" stroke="#116798"></path><path d="M520.3 69.5L493.3 125.1L534.5 134.1Z" fill="#1176ad" stroke="#1176ad"></path><path d="M422 104.1L367.8 101.1L380.8 135.6Z" fill="#0e96d9" stroke="#0e96d9"></path><path d="M414.8 44.5L367.8 101.1L422 104.1Z" fill="#116798" stroke="#116798"></path><path d="M573.5 80.5L520.3 69.5L534.5 134.1Z" fill="#1086c3" stroke="#1086c3"></path><path d="M742.3 301.3L709.3 274.7L662 328.3Z" fill="#1176ad" stroke="#1176ad"></path><path d="M700 134.1L633.8 103.1L621.8 148.6Z" fill="#08a6f0" stroke="#08a6f0"></path><path d="M621.8 148.6L573.5 80.5L534.5 134.1Z" fill="#0d4a6f" stroke="#0d4a6f"></path><path d="M247 269.7L282.3 266.7L245 242.2Z" fill="#0d4a6f" stroke="#0d4a6f"></path><path d="M247 269.7L255.3 306.3L282.3 266.7Z" fill="#0e96d9" stroke="#0e96d9"></path><path d="M282.3 266.7L255.3 306.3L321.5 308.3Z" fill="#0e96d9" stroke="#0e96d9"></path><path d="M319.5 389.8L298.3 465.9L338.5 439.4Z" fill="#021625" stroke="#021625"></path><path d="M319.5 486.9L372.8 495.9L338.5 439.4Z" fill="#1086c3" stroke="#1086c3"></path><path d="M338.5 439.4L372.8 495.9L410.8 457.4Z" fill="#072f48" stroke="#072f48"></path><path d="M468 479.9L485.3 531.5L507.3 487.9Z" fill="#072f48" stroke="#072f48"></path><path d="M412.8 528.5L468 479.9L410.8 457.4Z" fill="#08a6f0" stroke="#08a6f0"></path><path d="M507.3 487.9L569.5 517.9L570.5 461.4Z" fill="#08a6f0" stroke="#08a6f0"></path><path d="M255.3 306.3L258.3 363.8L321.5 308.3Z" fill="#072f48" stroke="#072f48"></path><path d="M245 242.2L282.3 266.7L288.3 224.2Z" fill="#021625" stroke="#021625"></path><path d="M255.3 306.3L211 317.3L258.3 363.8Z" fill="#1176ad" stroke="#1176ad"></path><path d="M698 172.6L621.8 148.6L670 236.2Z" fill="#0d4a6f" stroke="#0d4a6f"></path><path d="M621.8 148.6L633.8 103.1L573.5 80.5Z" fill="#116798" stroke="#116798"></path><path d="M465 525.5L485.3 531.5L468 479.9Z" fill="#1176ad" stroke="#1176ad"></path><path d="M485.3 531.5L569.5 517.9L507.3 487.9Z" fill="#052236" stroke="#052236"></path><path d="M251 159.6L245 242.2L288.3 224.2Z" fill="#072f48" stroke="#072f48"></path><path d="M745.3 230.2L698 172.6L670 236.2Z" fill="#116798" stroke="#116798"></path><path d="M372.8 495.9L412.8 528.5L410.8 457.4Z" fill="#052236" stroke="#052236"></path><path d="M436 600L523.3 600L485.3 531.5Z" fill="#072f48" stroke="#072f48"></path><path d="M702 460.4L703.3 408.8L632.8 416.4Z" fill="#0e96d9" stroke="#0e96d9"></path><path d="M677 354.8L742.3 301.3L662 328.3Z" fill="#072f48" stroke="#072f48"></path><path d="M654 490.9L632.8 416.4L614.8 464.9Z" fill="#1176ad" stroke="#1176ad"></path><path d="M343.5 52.5L333.5 87.1L367.8 101.1Z" fill="#1176ad" stroke="#1176ad"></path><path d="M367.8 101.1L333.5 87.1L323.5 162.6Z" fill="#0f5883" stroke="#0f5883"></path><path d="M307.3 167.6L251 159.6L288.3 224.2Z" fill="#08a6f0" stroke="#08a6f0"></path><path d="M262.3 444.4L298.3 465.9L319.5 389.8Z" fill="#0a3c5b" stroke="#0a3c5b"></path><path d="M372.8 495.9L333.5 560.5L412.8 528.5Z" fill="#0f5883" stroke="#0f5883"></path><path d="M464 69.5L414.8 44.5L422 104.1Z" fill="#0d4a6f" stroke="#0d4a6f"></path><path d="M459 0L414.8 44.5L464 69.5Z" fill="#0f5883" stroke="#0f5883"></path><path d="M488.3 0L464 69.5L520.3 69.5Z" fill="#0e96d9" stroke="#0e96d9"></path><path d="M298.3 465.9L319.5 486.9L338.5 439.4Z" fill="#1086c3" stroke="#1086c3"></path><path d="M772.5 345.3L742.3 301.3L677 354.8Z" fill="#08a6f0" stroke="#08a6f0"></path><path d="M709.3 274.7L745.3 230.2L670 236.2Z" fill="#1086c3" stroke="#1086c3"></path><path d="M594.8 535.5L654 490.9L614.8 464.9Z" fill="#1176ad" stroke="#1176ad"></path><path d="M270.3 115.1L251 159.6L307.3 167.6Z" fill="#0d4a6f" stroke="#0d4a6f"></path><path d="M698 172.6L700 134.1L621.8 148.6Z" fill="#052236" stroke="#052236"></path><path d="M714.3 119.1L700 134.1L741.3 142.6Z" fill="#052236" stroke="#052236"></path><path d="M485.3 531.5L576.5 541.5L569.5 517.9Z" fill="#0e96d9" stroke="#0e96d9"></path><path d="M569.5 517.9L594.8 535.5L614.8 464.9Z" fill="#0f5883" stroke="#0f5883"></path><path d="M523.3 600L576.5 541.5L485.3 531.5Z" fill="#116798" stroke="#116798"></path><path d="M742.3 301.3L745.3 230.2L709.3 274.7Z" fill="#0f5883" stroke="#0f5883"></path><path d="M576.5 541.5L594.8 535.5L569.5 517.9Z" fill="#0e96d9" stroke="#0e96d9"></path><path d="M258.3 363.8L262.3 444.4L319.5 389.8Z" fill="#08a6f0" stroke="#08a6f0"></path><path d="M298.3 465.9L240 479.9L319.5 486.9Z" fill="#021625" stroke="#021625"></path><path d="M223 442.4L262.3 444.4L258.3 363.8Z" fill="#0a3c5b" stroke="#0a3c5b"></path><path d="M142.8 267.7L211 317.3L247 269.7Z" fill="#08a6f0" stroke="#08a6f0"></path><path d="M247 269.7L211 317.3L255.3 306.3Z" fill="#072f48" stroke="#072f48"></path><path d="M142.8 267.7L247 269.7L245 242.2Z" fill="#072f48" stroke="#072f48"></path><path d="M414.8 44.5L343.5 52.5L367.8 101.1Z" fill="#052236" stroke="#052236"></path><path d="M333.5 87.1L270.3 115.1L323.5 162.6Z" fill="#0e96d9" stroke="#0e96d9"></path><path d="M285.3 39.5L270.3 115.1L333.5 87.1Z" fill="#052236" stroke="#052236"></path><path d="M667 522.5L702 460.4L654 490.9Z" fill="#116798" stroke="#116798"></path><path d="M654 490.9L702 460.4L632.8 416.4Z" fill="#0a3c5b" stroke="#0a3c5b"></path><path d="M703.3 408.8L772.5 345.3L677 354.8Z" fill="#021625" stroke="#021625"></path><path d="M211 317.3L211 354.8L258.3 363.8Z" fill="#1086c3" stroke="#1086c3"></path><path d="M702 460.4L739.3 417.4L703.3 408.8Z" fill="#1176ad" stroke="#1176ad"></path><path d="M742.3 301.3L792.5 293.7L745.3 230.2Z" fill="#08a6f0" stroke="#08a6f0"></path><path d="M741.3 142.6L700 134.1L698 172.6Z" fill="#0d4a6f" stroke="#0d4a6f"></path><path d="M700 134.1L714.3 119.1L633.8 103.1Z" fill="#052236" stroke="#052236"></path><path d="M552.5 0L520.3 69.5L573.5 80.5Z" fill="#0f5883" stroke="#0f5883"></path><path d="M639.8 40.5L573.5 80.5L633.8 103.1Z" fill="#08a6f0" stroke="#08a6f0"></path><path d="M552.5 0L488.3 0L520.3 69.5Z" fill="#1176ad" stroke="#1176ad"></path><path d="M414.8 44.5L404.8 0L343.5 52.5Z" fill="#116798" stroke="#116798"></path><path d="M488.3 0L459 0L464 69.5Z" fill="#0f5883" stroke="#0f5883"></path><path d="M739.3 417.4L772.5 345.3L703.3 408.8Z" fill="#08a6f0" stroke="#08a6f0"></path><path d="M666 53.5L639.8 40.5L633.8 103.1Z" fill="#021625" stroke="#021625"></path><path d="M594.8 535.5L667 522.5L654 490.9Z" fill="#021625" stroke="#021625"></path><path d="M702 460.4L734.3 468.9L739.3 417.4Z" fill="#0d4a6f" stroke="#0d4a6f"></path><path d="M669 600L667 522.5L594.8 535.5Z" fill="#116798" stroke="#116798"></path><path d="M792.5 159.6L741.3 142.6L745.3 230.2Z" fill="#0d4a6f" stroke="#0d4a6f"></path><path d="M745.3 230.2L741.3 142.6L698 172.6Z" fill="#072f48" stroke="#072f48"></path><path d="M714.3 119.1L666 53.5L633.8 103.1Z" fill="#08a6f0" stroke="#08a6f0"></path><path d="M639.8 40.5L552.5 0L573.5 80.5Z" fill="#072f48" stroke="#072f48"></path><path d="M735.3 74.5L666 53.5L714.3 119.1Z" fill="#116798" stroke="#116798"></path><path d="M459 0L404.8 0L414.8 44.5Z" fill="#1086c3" stroke="#1086c3"></path><path d="M247 74.5L238 102.1L270.3 115.1Z" fill="#0a3c5b" stroke="#0a3c5b"></path><path d="M211 354.8L223 442.4L258.3 363.8Z" fill="#0f5883" stroke="#0f5883"></path><path d="M262.3 444.4L240 479.9L298.3 465.9Z" fill="#072f48" stroke="#072f48"></path><path d="M667 522.5L734.3 468.9L702 460.4Z" fill="#0d4a6f" stroke="#0d4a6f"></path><path d="M812.5 370.8L821.8 299.7L772.5 345.3Z" fill="#0d4a6f" stroke="#0d4a6f"></path><path d="M191.8 89.1L190.8 194.2L251 159.6Z" fill="#0f5883" stroke="#0f5883"></path><path d="M251 159.6L190.8 194.2L245 242.2Z" fill="#1176ad" stroke="#1176ad"></path><path d="M135.5 334.3L180.8 379.8L211 354.8Z" fill="#0e96d9" stroke="#0e96d9"></path><path d="M223 442.4L240 479.9L262.3 444.4Z" fill="#0a3c5b" stroke="#0a3c5b"></path><path d="M319.5 486.9L333.5 560.5L372.8 495.9Z" fill="#0e96d9" stroke="#0e96d9"></path><path d="M261.3 555.5L333.5 560.5L319.5 486.9Z" fill="#0e96d9" stroke="#0e96d9"></path><path d="M436 600L485.3 531.5L465 525.5Z" fill="#052236" stroke="#052236"></path><path d="M821.8 299.7L792.5 293.7L772.5 345.3Z" fill="#0a3c5b" stroke="#0a3c5b"></path><path d="M772.5 345.3L792.5 293.7L742.3 301.3Z" fill="#0f5883" stroke="#0f5883"></path><path d="M285.3 39.5L333.5 87.1L343.5 52.5Z" fill="#0a3c5b" stroke="#0a3c5b"></path><path d="M270.3 115.1L238 102.1L251 159.6Z" fill="#0f5883" stroke="#0f5883"></path><path d="M436 600L465 525.5L412.8 528.5Z" fill="#0e96d9" stroke="#0e96d9"></path><path d="M576.5 541.5L598.8 600L594.8 535.5Z" fill="#0a3c5b" stroke="#0a3c5b"></path><path d="M376.8 600L436 600L412.8 528.5Z" fill="#0f5883" stroke="#0f5883"></path><path d="M135.5 334.3L211 354.8L211 317.3Z" fill="#072f48" stroke="#072f48"></path><path d="M211 354.8L180.8 379.8L223 442.4Z" fill="#08a6f0" stroke="#08a6f0"></path><path d="M223 442.4L187.8 451.4L240 479.9Z" fill="#08a6f0" stroke="#08a6f0"></path><path d="M322.5 0L285.3 39.5L343.5 52.5Z" fill="#0e96d9" stroke="#0e96d9"></path><path d="M285.3 39.5L247 74.5L270.3 115.1Z" fill="#052236" stroke="#052236"></path><path d="M238 102.1L191.8 89.1L251 159.6Z" fill="#072f48" stroke="#072f48"></path><path d="M523.3 600L569.5 600L576.5 541.5Z" fill="#021625" stroke="#021625"></path><path d="M639.8 40.5L627.8 0L552.5 0Z" fill="#0a3c5b" stroke="#0a3c5b"></path><path d="M661 0L627.8 0L639.8 40.5Z" fill="#1086c3" stroke="#1086c3"></path><path d="M661 0L639.8 40.5L666 53.5Z" fill="#0d4a6f" stroke="#0d4a6f"></path><path d="M321.5 600L376.8 600L333.5 560.5Z" fill="#021625" stroke="#021625"></path><path d="M333.5 560.5L376.8 600L412.8 528.5Z" fill="#0d4a6f" stroke="#0d4a6f"></path><path d="M569.5 600L598.8 600L576.5 541.5Z" fill="#0f5883" stroke="#0f5883"></path><path d="M757.3 571.5L774.5 481.9L734.3 468.9Z" fill="#116798" stroke="#116798"></path><path d="M782.5 133.1L735.3 74.5L741.3 142.6Z" fill="#1086c3" stroke="#1086c3"></path><path d="M741.3 142.6L735.3 74.5L714.3 119.1Z" fill="#08a6f0" stroke="#08a6f0"></path><path d="M404.8 0L322.5 0L343.5 52.5Z" fill="#0d4a6f" stroke="#0d4a6f"></path><path d="M231 0L191.8 89.1L247 74.5Z" fill="#021625" stroke="#021625"></path><path d="M811.5 198.2L792.5 159.6L745.3 230.2Z" fill="#0f5883" stroke="#0f5883"></path><path d="M180.8 379.8L187.8 451.4L223 442.4Z" fill="#1086c3" stroke="#1086c3"></path><path d="M240 479.9L261.3 555.5L319.5 486.9Z" fill="#0d4a6f" stroke="#0d4a6f"></path><path d="M792.5 159.6L782.5 133.1L741.3 142.6Z" fill="#0a3c5b" stroke="#0a3c5b"></path><path d="M812.5 370.8L772.5 345.3L739.3 417.4Z" fill="#116798" stroke="#116798"></path><path d="M792.5 293.7L811.5 198.2L745.3 230.2Z" fill="#052236" stroke="#052236"></path><path d="M808.5 449.4L812.5 370.8L739.3 417.4Z" fill="#1176ad" stroke="#1176ad"></path><path d="M758.3 0L661 0L666 53.5Z" fill="#116798" stroke="#116798"></path><path d="M836.8 204.2L811.5 198.2L792.5 293.7Z" fill="#0a3c5b" stroke="#0a3c5b"></path><path d="M792.5 159.6L844.8 154.6L782.5 133.1Z" fill="#1176ad" stroke="#1176ad"></path><path d="M129.5 258.7L142.8 267.7L190.8 194.2Z" fill="#0d4a6f" stroke="#0d4a6f"></path><path d="M190.8 194.2L142.8 267.7L245 242.2Z" fill="#08a6f0" stroke="#08a6f0"></path><path d="M180.8 379.8L131.5 438.4L187.8 451.4Z" fill="#116798" stroke="#116798"></path><path d="M142.8 267.7L141.8 311.3L211 317.3Z" fill="#1176ad" stroke="#1176ad"></path><path d="M214 536.5L261.3 555.5L240 479.9Z" fill="#0e96d9" stroke="#0e96d9"></path><path d="M734.3 468.9L774.5 481.9L739.3 417.4Z" fill="#0a3c5b" stroke="#0a3c5b"></path><path d="M757.3 571.5L734.3 468.9L667 522.5Z" fill="#1176ad" stroke="#1176ad"></path><path d="M812.5 370.8L831.8 302.3L821.8 299.7Z" fill="#072f48" stroke="#072f48"></path><path d="M821.8 299.7L836.8 204.2L792.5 293.7Z" fill="#021625" stroke="#021625"></path><path d="M281.3 600L321.5 600L333.5 560.5Z" fill="#0a3c5b" stroke="#0a3c5b"></path><path d="M67.3 302.3L135.5 334.3L141.8 311.3Z" fill="#0e96d9" stroke="#0e96d9"></path><path d="M141.8 311.3L135.5 334.3L211 317.3Z" fill="#0e96d9" stroke="#0e96d9"></path><path d="M231 0L247 74.5L285.3 39.5Z" fill="#0f5883" stroke="#0f5883"></path><path d="M247 74.5L191.8 89.1L238 102.1Z" fill="#052236" stroke="#052236"></path><path d="M116.5 210.2L129.5 258.7L190.8 194.2Z" fill="#116798" stroke="#116798"></path><path d="M142.8 267.7L129.5 258.7L141.8 311.3Z" fill="#0d4a6f" stroke="#0d4a6f"></path><path d="M598.8 600L669 600L594.8 535.5Z" fill="#072f48" stroke="#072f48"></path><path d="M774.5 481.9L808.5 449.4L739.3 417.4Z" fill="#08a6f0" stroke="#08a6f0"></path><path d="M812.5 370.8L861.8 374.8L831.8 302.3Z" fill="#1086c3" stroke="#1086c3"></path><path d="M825.8 500.9L808.5 449.4L774.5 481.9Z" fill="#08a6f0" stroke="#08a6f0"></path><path d="M831.8 302.3L836.8 204.2L821.8 299.7Z" fill="#052236" stroke="#052236"></path><path d="M811.5 198.2L844.8 154.6L792.5 159.6Z" fill="#0e96d9" stroke="#0e96d9"></path><path d="M322.5 0L263.3 0L285.3 39.5Z" fill="#0d4a6f" stroke="#0d4a6f"></path><path d="M162.8 511.9L240 479.9L187.8 451.4Z" fill="#052236" stroke="#052236"></path><path d="M162.8 511.9L214 536.5L240 479.9Z" fill="#1176ad" stroke="#1176ad"></path><path d="M261.3 555.5L281.3 600L333.5 560.5Z" fill="#0e96d9" stroke="#0e96d9"></path><path d="M236 600L281.3 600L261.3 555.5Z" fill="#1086c3" stroke="#1086c3"></path><path d="M120.5 150.6L143.8 142.6L112.5 82.1Z" fill="#1176ad" stroke="#1176ad"></path><path d="M191.8 89.1L143.8 142.6L190.8 194.2Z" fill="#0a3c5b" stroke="#0a3c5b"></path><path d="M143.8 142.6L116.5 210.2L190.8 194.2Z" fill="#1086c3" stroke="#1086c3"></path><path d="M67.3 370.8L103.5 383.8L135.5 334.3Z" fill="#116798" stroke="#116798"></path><path d="M103.5 383.8L131.5 438.4L180.8 379.8Z" fill="#052236" stroke="#052236"></path><path d="M103.5 383.8L180.8 379.8L135.5 334.3Z" fill="#1176ad" stroke="#1176ad"></path><path d="M900 439.4L846.8 408.4L808.5 449.4Z" fill="#0d4a6f" stroke="#0d4a6f"></path><path d="M808.5 449.4L846.8 408.4L812.5 370.8Z" fill="#1176ad" stroke="#1176ad"></path><path d="M831.8 302.3L900 254.7L836.8 204.2Z" fill="#1176ad" stroke="#1176ad"></path><path d="M263.3 0L231 0L285.3 39.5Z" fill="#052236" stroke="#052236"></path><path d="M900 179.6L844.8 154.6L836.8 204.2Z" fill="#08a6f0" stroke="#08a6f0"></path><path d="M836.8 204.2L844.8 154.6L811.5 198.2Z" fill="#1176ad" stroke="#1176ad"></path><path d="M782.5 133.1L815.8 84.1L735.3 74.5Z" fill="#0d4a6f" stroke="#0d4a6f"></path><path d="M735.3 74.5L758.3 0L666 53.5Z" fill="#0f5883" stroke="#0f5883"></path><path d="M846.8 408.4L861.8 374.8L812.5 370.8Z" fill="#0a3c5b" stroke="#0a3c5b"></path><path d="M669 600L717.3 600L667 522.5Z" fill="#052236" stroke="#052236"></path><path d="M161.8 59.5L143.8 142.6L191.8 89.1Z" fill="#0a3c5b" stroke="#0a3c5b"></path><path d="M143.8 142.6L120.5 150.6L116.5 210.2Z" fill="#0d4a6f" stroke="#0d4a6f"></path><path d="M118.5 488.9L162.8 511.9L187.8 451.4Z" fill="#0a3c5b" stroke="#0a3c5b"></path><path d="M214 536.5L236 600L261.3 555.5Z" fill="#08a6f0" stroke="#08a6f0"></path><path d="M844.8 154.6L815.8 84.1L782.5 133.1Z" fill="#116798" stroke="#116798"></path><path d="M67.3 302.3L129.5 258.7L65.3 242.2Z" fill="#052236" stroke="#052236"></path><path d="M67.3 302.3L141.8 311.3L129.5 258.7Z" fill="#1176ad" stroke="#1176ad"></path><path d="M105.5 520.5L173.8 548.5L162.8 511.9Z" fill="#0d4a6f" stroke="#0d4a6f"></path><path d="M757.3 571.5L800.5 521.5L774.5 481.9Z" fill="#1086c3" stroke="#1086c3"></path><path d="M900 363.8L900 352.3L861.8 374.8Z" fill="#072f48" stroke="#072f48"></path><path d="M717.3 600L757.3 571.5L667 522.5Z" fill="#0e96d9" stroke="#0e96d9"></path><path d="M231 0L161.8 59.5L191.8 89.1Z" fill="#08a6f0" stroke="#08a6f0"></path><path d="M173.8 548.5L236 600L214 536.5Z" fill="#1086c3" stroke="#1086c3"></path><path d="M815.8 84.1L781.5 28.5L735.3 74.5Z" fill="#0d4a6f" stroke="#0d4a6f"></path><path d="M781.5 28.5L758.3 0L735.3 74.5Z" fill="#116798" stroke="#116798"></path><path d="M825.8 524.5L825.8 500.9L800.5 521.5Z" fill="#116798" stroke="#116798"></path><path d="M800.5 521.5L825.8 500.9L774.5 481.9Z" fill="#0f5883" stroke="#0f5883"></path><path d="M118.5 488.9L187.8 451.4L131.5 438.4Z" fill="#021625" stroke="#021625"></path><path d="M162.8 511.9L173.8 548.5L214 536.5Z" fill="#072f48" stroke="#072f48"></path><path d="M807.5 600L800.5 521.5L757.3 571.5Z" fill="#1176ad" stroke="#1176ad"></path><path d="M807.5 600L825.8 524.5L800.5 521.5Z" fill="#021625" stroke="#021625"></path><path d="M900 363.8L861.8 374.8L900 439.4Z" fill="#0e96d9" stroke="#0e96d9"></path><path d="M51.3 452.4L118.5 488.9L131.5 438.4Z" fill="#0a3c5b" stroke="#0a3c5b"></path><path d="M65.3 242.2L129.5 258.7L116.5 210.2Z" fill="#0a3c5b" stroke="#0a3c5b"></path><path d="M103.5 383.8L51.3 452.4L131.5 438.4Z" fill="#1176ad" stroke="#1176ad"></path><path d="M900 352.3L831.8 302.3L861.8 374.8Z" fill="#0e96d9" stroke="#0e96d9"></path><path d="M900 352.3L900 254.7L831.8 302.3Z" fill="#08a6f0" stroke="#08a6f0"></path><path d="M900 64.5L836.8 32.5L815.8 84.1Z" fill="#021625" stroke="#021625"></path><path d="M900 254.7L900 238.2L836.8 204.2Z" fill="#1176ad" stroke="#1176ad"></path><path d="M39.3 152.6L116.5 210.2L120.5 150.6Z" fill="#0a3c5b" stroke="#0a3c5b"></path><path d="M39.3 152.6L65.3 242.2L116.5 210.2Z" fill="#021625" stroke="#021625"></path><path d="M861.8 374.8L846.8 408.4L900 439.4Z" fill="#0e96d9" stroke="#0e96d9"></path><path d="M900 439.4L808.5 449.4L825.8 500.9Z" fill="#1176ad" stroke="#1176ad"></path><path d="M0 307.3L67.3 370.8L67.3 302.3Z" fill="#052236" stroke="#052236"></path><path d="M67.3 302.3L67.3 370.8L135.5 334.3Z" fill="#052236" stroke="#052236"></path><path d="M94.5 38.5L112.5 82.1L161.8 59.5Z" fill="#021625" stroke="#021625"></path><path d="M161.8 59.5L112.5 82.1L143.8 142.6Z" fill="#1176ad" stroke="#1176ad"></path><path d="M900 238.2L900 179.6L836.8 204.2Z" fill="#116798" stroke="#116798"></path><path d="M815.8 84.1L836.8 32.5L781.5 28.5Z" fill="#1086c3" stroke="#1086c3"></path><path d="M900 109.1L815.8 84.1L844.8 154.6Z" fill="#1176ad" stroke="#1176ad"></path><path d="M781.5 28.5L811.5 0L758.3 0Z" fill="#021625" stroke="#021625"></path><path d="M836.8 32.5L811.5 0L781.5 28.5Z" fill="#072f48" stroke="#072f48"></path><path d="M900 502.9L900 439.4L825.8 500.9Z" fill="#021625" stroke="#021625"></path><path d="M67.3 519.5L105.5 520.5L118.5 488.9Z" fill="#021625" stroke="#021625"></path><path d="M118.5 488.9L105.5 520.5L162.8 511.9Z" fill="#1176ad" stroke="#1176ad"></path><path d="M173.8 548.5L164.8 600L236 600Z" fill="#1086c3" stroke="#1086c3"></path><path d="M128.5 600L164.8 600L173.8 548.5Z" fill="#072f48" stroke="#072f48"></path><path d="M231 0L144.8 0L161.8 59.5Z" fill="#0f5883" stroke="#0f5883"></path><path d="M717.3 600L807.5 600L757.3 571.5Z" fill="#0a3c5b" stroke="#0a3c5b"></path><path d="M825.8 524.5L900 502.9L825.8 500.9Z" fill="#116798" stroke="#116798"></path><path d="M0 245.7L35.3 267.7L65.3 242.2Z" fill="#0a3c5b" stroke="#0a3c5b"></path><path d="M65.3 242.2L35.3 267.7L67.3 302.3Z" fill="#1086c3" stroke="#1086c3"></path><path d="M67.3 370.8L51.3 452.4L103.5 383.8Z" fill="#116798" stroke="#116798"></path><path d="M72.3 98.1L120.5 150.6L112.5 82.1Z" fill="#0d4a6f" stroke="#0d4a6f"></path><path d="M73.3 74.5L72.3 98.1L112.5 82.1Z" fill="#0a3c5b" stroke="#0a3c5b"></path><path d="M900 179.6L900 109.1L844.8 154.6Z" fill="#1086c3" stroke="#1086c3"></path><path d="M836.8 32.5L849.8 0L811.5 0Z" fill="#021625" stroke="#021625"></path><path d="M0 434.4L51.3 452.4L67.3 370.8Z" fill="#0e96d9" stroke="#0e96d9"></path><path d="M105.5 520.5L128.5 600L173.8 548.5Z" fill="#1176ad" stroke="#1176ad"></path><path d="M144.8 0L94.5 38.5L161.8 59.5Z" fill="#052236" stroke="#052236"></path><path d="M94.5 38.5L73.3 74.5L112.5 82.1Z" fill="#021625" stroke="#021625"></path><path d="M72.3 98.1L39.3 152.6L120.5 150.6Z" fill="#0f5883" stroke="#0f5883"></path><path d="M0 153.6L39.3 152.6L0 109.1Z" fill="#08a6f0" stroke="#08a6f0"></path><path d="M900 0L849.8 0L836.8 32.5Z" fill="#052236" stroke="#052236"></path><path d="M900 566.5L900 502.9L825.8 524.5Z" fill="#021625" stroke="#021625"></path><path d="M807.5 600L835.8 600L825.8 524.5Z" fill="#0a3c5b" stroke="#0a3c5b"></path><path d="M67.3 519.5L128.5 600L105.5 520.5Z" fill="#0f5883" stroke="#0f5883"></path><path d="M0 472.9L50.3 481.9L51.3 452.4Z" fill="#052236" stroke="#052236"></path><path d="M51.3 452.4L50.3 481.9L118.5 488.9Z" fill="#1176ad" stroke="#1176ad"></path><path d="M900 109.1L900 64.5L815.8 84.1Z" fill="#116798" stroke="#116798"></path><path d="M50.3 481.9L67.3 519.5L118.5 488.9Z" fill="#0f5883" stroke="#0f5883"></path><path d="M0 245.7L0 307.3L35.3 267.7Z" fill="#0e96d9" stroke="#0e96d9"></path><path d="M35.3 267.7L0 307.3L67.3 302.3Z" fill="#021625" stroke="#021625"></path><path d="M0 193.2L0 245.7L65.3 242.2Z" fill="#0e96d9" stroke="#0e96d9"></path><path d="M0 307.3L0 371.8L67.3 370.8Z" fill="#0d4a6f" stroke="#0d4a6f"></path><path d="M50.3 481.9L0 546.5L67.3 519.5Z" fill="#08a6f0" stroke="#08a6f0"></path><path d="M0 153.6L0 193.2L39.3 152.6Z" fill="#1176ad" stroke="#1176ad"></path><path d="M39.3 152.6L0 193.2L65.3 242.2Z" fill="#052236" stroke="#052236"></path><path d="M39.3 152.6L72.3 98.1L0 109.1Z" fill="#021625" stroke="#021625"></path><path d="M144.8 0L84.5 0L94.5 38.5Z" fill="#0e96d9" stroke="#0e96d9"></path><path d="M94.5 38.5L61.3 0L73.3 74.5Z" fill="#0e96d9" stroke="#0e96d9"></path><path d="M835.8 600L900 566.5L825.8 524.5Z" fill="#052236" stroke="#052236"></path><path d="M0 109.1L72.3 98.1L73.3 74.5Z" fill="#052236" stroke="#052236"></path><path d="M0 371.8L0 434.4L67.3 370.8Z" fill="#052236" stroke="#052236"></path><path d="M67.3 519.5L40.3 600L128.5 600Z" fill="#0e96d9" stroke="#0e96d9"></path><path d="M900 64.5L900 0L836.8 32.5Z" fill="#0f5883" stroke="#0f5883"></path><path d="M84.5 0L61.3 0L94.5 38.5Z" fill="#0e96d9" stroke="#0e96d9"></path><path d="M0 50.5L0 109.1L73.3 74.5Z" fill="#0d4a6f" stroke="#0d4a6f"></path><path d="M0 434.4L0 472.9L51.3 452.4Z" fill="#052236" stroke="#052236"></path><path d="M835.8 600L900 600L900 566.5Z" fill="#0a3c5b" stroke="#0a3c5b"></path><path d="M61.3 0L0 50.5L73.3 74.5Z" fill="#021625" stroke="#021625"></path><path d="M0 546.5L40.3 600L67.3 519.5Z" fill="#1176ad" stroke="#1176ad"></path><path d="M0 472.9L0 546.5L50.3 481.9Z" fill="#021625" stroke="#021625"></path><path d="M61.3 0L0 0L0 50.5Z" fill="#021625" stroke="#021625"></path><path d="M0 546.5L0 600L40.3 600Z" fill="#0f5883" stroke="#0f5883"></path></g></svg>